<?xml version="1.0" standalone="no"?>
<!DOCTYPE svg PUBLIC "-//W3C//DTD SVG 20010904//EN"
 "http://www.w3.org/TR/2001/REC-SVG-20010904/DTD/svg10.dtd">
<svg version="1.0" xmlns="http://www.w3.org/2000/svg"
 width="500.000000pt" height="500.000000pt" viewBox="0 0 500.000000 500.000000"
 preserveAspectRatio="xMidYMid meet">
<metadata>
Created by potrace 1.14, written by Peter Selinger 2001-2017
</metadata>
<g transform="translate(0.000000,500.000000) scale(0.100000,-0.100000)"
fill="#000000" stroke="none">
<path d="M2356 4578 c-20 -10 -36 -22 -36 -27 0 -5 -30 -19 -67 -31 -75 -24
-136 -59 -171 -99 -36 -42 -77 -134 -86 -195 -2 -14 -31 -28 -118 -56 -63 -21
-141 -50 -174 -65 -32 -15 -75 -34 -94 -43 -19 -8 -80 -43 -135 -75 -439 -262
-763 -674 -909 -1157 -14 -47 -27 -96 -30 -110 -3 -14 -12 -56 -20 -95 -25
-117 -31 -201 -30 -405 1 -183 11 -276 48 -445 31 -139 129 -390 199 -510 61
-104 100 -164 161 -245 74 -99 235 -268 321 -335 28 -22 52 -43 55 -46 3 -3
46 -33 95 -67 280 -187 575 -297 910 -339 78 -10 371 -10 456 -1 232 27 473
98 681 203 81 41 228 128 260 154 7 6 51 40 98 77 371 292 639 736 725 1206
25 134 26 151 30 343 3 175 -8 305 -35 427 -6 29 -14 67 -17 83 -20 116 -152
437 -236 570 -41 67 -139 204 -179 251 -45 55 -269 274 -279 274 -4 0 -14 6
-21 13 -25 25 -156 117 -166 117 -6 0 -12 4 -14 8 -9 22 -236 136 -373 187
-55 20 -101 38 -103 40 -2 2 -5 27 -6 57 -4 84 -29 110 -121 124 -22 3 -47 12
-55 19 -26 22 -104 61 -149 74 -43 12 -55 15 -103 26 -13 2 -34 7 -48 10 -14
3 -33 19 -42 35 -37 64 -145 88 -222 48z"/>
</g>
</svg>
